# xmcd
#
# Track frame offsets: 
#        183
#        14765
#        29098
#        40260
#        52855
#        64755
#        77223
#        87425
#        98110
#        110320
#        119568
#        132503
#        143628
#        157778
#        167750
#        179870
#        195480
#        207570
#
# Disc length: 2962 seconds
#
# Revision: 0
# Processed by: cddbd v1.5.1PL0 Copyright (c) Steve Scherf et al.
# Submitted via: ExactAudioCopy v0.95a3
#
DISCID=040b9012
DTITLE=Benny Goodman - Stompin' at The Savoy
DYEAR=1900
DGENRE=Blues
TTITLE0=Strompin' AT The Savoy
TTITLE1=Who ?
TTITLE2=Goody Goody
TTITLE3=Never Should Have Told You
TTITLE4=Afraid To Dream
TTITLE5=After You've Gone
TTITLE6=If I Could Be With You (one Hour Tonight )
TTITLE7=Here's Love In Your Eyes
TTITLE8=I'm A Ding Dong Daddy From Dumas
TTITLE9=I Know Taht You Know
TTITLE10=Sugarfoot Stomp
TTITLE11=My Melancholy Baby
TTITLE12=Wehn Bhuddha Smiles
TTITLE13=Farewell Blues
TTITLE14=Louise
TTITLE15=S' Wonderful
TTITLE16=These Foolish Tings
TTITLE17=I Credit For You
EXTD=
EXTT0=
EXTT1=
EXTT2=
EXTT3=
EXTT4=
EXTT5=
EXTT6=
EXTT7=
EXTT8=
EXTT9=
EXTT10=
EXTT11=
EXTT12=
EXTT13=
EXTT14=
EXTT15=
EXTT16=
EXTT17=
PLAYORDER=
